<svg width="88" height="88" viewBox="0 0 88 88" fill="none" xmlns="http://www.w3.org/2000/svg">
<g clip-path="url(#clip0_1_135)">
<path d="M24.6125 49.5001L11 60.5001V16.5001C11 15.7708 11.2897 15.0713 11.8055 14.5556C12.3212 14.0399 13.0207 13.7501 13.75 13.7501H57.75C58.4793 13.7501 59.1788 14.0399 59.6945 14.5556C60.2103 15.0713 60.5 15.7708 60.5 16.5001V46.7501C60.5 47.4795 60.2103 48.1789 59.6945 48.6947C59.1788 49.2104 58.4793 49.5001 57.75 49.5001H24.6125Z" stroke="white" stroke-width="2" stroke-linecap="round" stroke-linejoin="round"/>
<path d="M27.5 49.5001V63.2501C27.5 63.9795 27.7897 64.6789 28.3055 65.1947C28.8212 65.7104 29.5207 66.0001 30.25 66.0001H63.3875L77 77.0001V33.0001C77 32.2708 76.7103 31.5713 76.1945 31.0556C75.6788 30.5399 74.9793 30.2501 74.25 30.2501H60.5" stroke="white" stroke-width="2" stroke-linecap="round" stroke-linejoin="round"/>
</g>
<defs>
<clipPath id="clip0_1_135">
<rect width="88" height="88" fill="white"/>
</clipPath>
</defs>
</svg>
